# xmcd
#
# Track frame offsets:
# 150
# 14656
# 32318
# 50400
# 65008
# 81051
# 96167
# 110261
# 123159
# 137875
# 150691
# 165718
#
# Disc length: 2410 seconds
#
#
# Revision: 0
# Processed by: cddbd v1.5.2PL0 Copyright (c) Steve Scherf et al.
# Submitted via: FreeRIP 2.96 
#
DISCID=9609680c
DTITLE=Jaffar Sater - Estrada
DYEAR=2004
DGENRE=Country
TTITLE0=O Show Vai Começar
TTITLE1=Estrada
TTITLE2=Te Amo Em Sonhos
TTITLE3=Senhorita
TTITLE4=Assim Eu Sou
TTITLE5=O Nosso Amor
TTITLE6=Rasta Bonito
TTITLE7=Cowboy Forever
TTITLE8=Quero Ter Você
TTITLE9=Pó De Guaraná
TTITLE10=Cidade Perdida
TTITLE11=Hold You Close Tonight
EXTD=
EXTT0=
EXTT1=
EXTT2=
EXTT3=
EXTT4=
EXTT5=
EXTT6=
EXTT7=
EXTT8=
EXTT9=
EXTT10=
EXTT11=
PLAYORDER=
